<svg width="17" height="16" viewBox="0 0 17 16" fill="none" xmlns="http://www.w3.org/2000/svg">
<path d="M5.58 6.00002H11.42C11.5227 5.99298 11.6252 6.01599 11.715 6.06626C11.8049 6.11652 11.8781 6.19185 11.9259 6.28306C11.9736 6.37427 11.9937 6.4774 11.9838 6.57985C11.9739 6.68231 11.9343 6.77966 11.87 6.86002L8.95 9.80002C8.89369 9.86387 8.82444 9.915 8.74686 9.95002C8.66927 9.98504 8.58512 10.0032 8.5 10.0032C8.41487 10.0032 8.33072 9.98504 8.25313 9.95002C8.17555 9.915 8.1063 9.86387 8.05 9.80002L5.13 6.86002C5.06566 6.77966 5.02612 6.68231 5.0162 6.57985C5.00628 6.4774 5.02641 6.37427 5.07414 6.28306C5.12186 6.19185 5.19511 6.11652 5.28494 6.06626C5.37477 6.01599 5.4773 5.99298 5.58 6.00002Z" fill="#414348"/>
</svg>
